<svg width="256" height="256" viewBox="0 0 256 256" fill="none" xmlns="http://www.w3.org/2000/svg">
  <style>
    @media (prefers-color-scheme: light) {
      rect { fill: white; }
      #paint0_linear_1_2 stop {
      stop-color: black;
      }
  }
  </style>
  <rect width="256" height="256" rx="128" fill="black"/>
  <path d="M127.049 30.927C127.348 30.0057 128.652 30.0057 128.951 30.9271L150.227 96.4073C150.361 96.8193 150.745 97.0983 151.178 97.0983H220.028C220.997 97.0983 221.399 98.3379 220.616 98.9073L164.915 139.376C164.564 139.631 164.418 140.082 164.552 140.494L185.827 205.975C186.127 206.896 185.072 207.662 184.289 207.093L128.588 166.624C128.237 166.369 127.763 166.369 127.412 166.624L71.7114 207.093C70.9277 207.662 69.8732 206.896 70.1725 205.975L91.4484 140.494C91.5822 140.082 91.4356 139.631 91.0851 139.376L35.3842 98.9073C34.6005 98.3379 35.0033 97.0983 35.972 97.0983H104.822C105.255 97.0983 105.639 96.8193 105.773 96.4073L127.049 30.927Z" fill="url(#paint0_linear_1_2)"/>
  <defs>
    <linearGradient id="paint0_linear_1_2" x1="128" y1="28" x2="128" y2="228" gradientUnits="userSpaceOnUse">
      <stop stop-color="white"/>
      <stop offset="1"/>
    </linearGradient>
  </defs>
</svg>
