<svg width="256" height="256" viewBox="0 0 256 256" fill="none" xmlns="http://www.w3.org/2000/svg">
<path d="M32 188.984C35.1944 189.218 38.3888 189.439 41.5832 189.649C70.333 191.539 99.0827 192.484 127.832 192.484C156.582 192.484 185.332 191.539 214.082 189.649C217.276 189.439 220.471 189.218 223.665 188.984C220.471 188.751 217.276 188.529 214.082 188.319C185.332 186.429 156.582 185.484 127.832 185.484C99.0827 185.484 70.333 186.429 41.5832 188.319C38.3888 188.529 35.1944 188.751 32 188.984Z" fill="url(#paint0_linear_2_36)"/>
<path d="M223.665 0C221.86 4.18537 220.066 8.37479 218.283 12.5683C202.238 50.3098 187.077 88.3805 172.803 126.78C158.529 165.181 145.14 203.91 132.637 242.968C131.248 247.308 129.87 251.652 128.503 256C128.503 256 128.503 256 128.503 256C130.307 251.815 132.101 247.625 133.884 243.432C149.93 205.69 165.09 167.62 179.364 129.22C193.639 90.8195 207.027 52.0903 219.53 13.0317C220.919 8.69187 222.298 4.34797 223.665 0Z" fill="url(#paint1_linear_2_36)"/>
<path d="M32 0C33.39 4.34897 34.791 8.69383 36.2029 13.0346C48.9097 52.1012 62.5009 90.8346 76.9763 129.235C91.4517 167.635 106.811 205.701 123.055 243.435C124.86 247.627 126.676 251.816 128.503 256C127.113 251.651 125.712 247.306 124.3 242.965C111.593 203.899 98.0017 165.165 83.5263 126.765C69.0509 88.3654 53.6913 50.2988 37.4474 12.5654C35.6425 8.37284 33.8267 4.18436 32 0Z" fill="url(#paint2_linear_2_36)"/>
<path d="M32 188.984C35.3582 186.001 38.7083 183.009 42.0501 180.009C72.1269 153.007 101.54 125.332 130.29 96.9844C159.04 68.6368 187.126 39.6162 214.549 9.92274C217.596 6.62347 220.634 3.31591 223.665 0C220.307 2.98361 216.957 5.97549 213.615 8.97569C183.538 35.9775 154.125 63.6523 125.375 91.9999C96.6253 120.348 68.5391 149.368 41.1163 179.062C38.0694 182.361 35.0306 185.668 32 188.984Z" fill="url(#paint3_linear_2_36)"/>
<path d="M223.665 188.984C223.665 188.984 223.665 188.984 223.665 188.984C220.634 185.668 217.596 182.361 214.549 179.062C187.126 149.368 159.04 120.348 130.29 91.9999C101.54 63.6523 72.1269 35.9775 42.0502 8.97569C38.7083 5.97549 35.3583 2.98361 32 0C35.0306 3.31591 38.0694 6.62347 41.1163 9.92274C68.5391 39.6162 96.6254 68.6368 125.375 96.9844C154.125 125.332 183.538 153.007 213.615 180.009C216.957 183.009 220.307 186.001 223.665 188.984Z" fill="url(#paint4_linear_2_36)"/>
<defs>
<linearGradient id="paint0_linear_2_36" x1="221.487" y1="187.984" x2="34.5563" y2="197.453" gradientUnits="userSpaceOnUse">
<stop offset="0.110577" stop-color="white"/>
<stop offset="0.368248" stop-opacity="0"/>
<stop offset="0.637231" stop-opacity="0"/>
<stop offset="0.865385" stop-color="white"/>
</linearGradient>
<linearGradient id="paint1_linear_2_36" x1="176.084" y1="0" x2="176.084" y2="256" gradientUnits="userSpaceOnUse">
<stop offset="0.331731" stop-color="white"/>
<stop offset="0.557181" stop-opacity="0"/>
<stop offset="0.740385" stop-color="white"/>
</linearGradient>
<linearGradient id="paint2_linear_2_36" x1="80.2513" y1="0" x2="80.2513" y2="256" gradientUnits="userSpaceOnUse">
<stop offset="0.298077" stop-color="white"/>
<stop offset="0.545711" stop-color="#0E0E0E" stop-opacity="0"/>
<stop offset="0.740385" stop-color="white"/>
</linearGradient>
<linearGradient id="paint3_linear_2_36" x1="127.832" y1="188.984" x2="127.832" y2="0" gradientUnits="userSpaceOnUse">
<stop offset="0.110577" stop-color="white"/>
<stop offset="0.5" stop-opacity="0"/>
<stop offset="0.860577" stop-color="white"/>
</linearGradient>
<linearGradient id="paint4_linear_2_36" x1="127.832" y1="0" x2="127.832" y2="188.984" gradientUnits="userSpaceOnUse">
<stop stop-color="white"/>
<stop offset="0.4" stop-color="white"/>
<stop offset="0.8" stop-color="white"/>
<stop offset="1" stop-color="white"/>
</linearGradient>
</defs>
</svg>
