<svg width="187" height="178" viewBox="0 0 187 178" fill="none" xmlns="http://www.w3.org/2000/svg">
  <path d="M92.0788 0.690983C92.3782 -0.230328 93.6816 -0.230327 93.981 0.690984L115.257 66.1713C115.391 66.5833 115.775 66.8622 116.208 66.8622H185.058C186.027 66.8622 186.429 68.1018 185.646 68.6712L129.945 109.14C129.594 109.395 129.448 109.846 129.582 110.258L150.857 175.739C151.157 176.66 150.102 177.426 149.319 176.857L93.6177 136.388C93.2672 136.133 92.7926 136.133 92.4421 136.388L36.7413 176.857C35.9576 177.426 34.9031 176.66 35.2024 175.739L56.4783 110.258C56.6121 109.846 56.4655 109.395 56.115 109.14L0.414153 68.6712C-0.369561 68.1018 0.0332155 66.8622 1.00194 66.8622H69.852C70.2852 66.8622 70.6691 66.5833 70.803 66.1712L92.0788 0.690983Z" fill="url(#paint0_linear_1_7)"/>
  <defs>
    <linearGradient id="paint0_linear_1_7" x1="93.0299" y1="-2.23607" x2="93.0299" y2="197.764" gradientUnits="userSpaceOnUse">
      <stop stop-color="white"/>
      <stop offset="1"/>
    </linearGradient>
  </defs>
</svg>
